# xmcd
#
# Track frame offsets:
#	182
#	26200
#	48735
#	78435
#	97617
#	115637
#	139317
#	160965
#	177385
#	197790
#	219622
#	233842
#	249822
#	274270
#	296295
#	313950
#	332745
#
# Disc length: 4707 seconds
#
# Revision: 0
# Processed by: cddbd v1.5.2PL0 Copyright (c) Steve Scherf et al.
# Submitted via: EasyCDDAExtractor 16.0.9.1
#
DISCID=f6126111
DTITLE=B. B. King - Deuces Wild
DYEAR=1997
DGENRE=Blues
TTITLE0=B. B. King and Van Morrison - If You Love Me
TTITLE1=B. B. King and Tracy Chapman - The Thrill Is Gone
TTITLE2=B. B. King and Eric Clapton - Rock Me Baby
TTITLE3=B. B. King and Mick Hucknall - Please Send Me Someone To Love
TTITLE4=B. B. King and Bonnie Raitt - Baby I Love You
TTITLE5=B. B. King and D´angelo - Ain´T Nobody Home
TTITLE6=B. B. King and Jools Holland - Pauly´S Birthday Boogie
TTITLE7=B. B. King and Dr, John - There Must Be A Better World Somewhere
TTITLE8=B. B. King and Marty Stuart - Confessin´ The Blues
TTITLE9=B. B. King and dionne Warwick - Hummingbird
TTITLE10=B. B. King and Paul Carrack - Bring It Home To Me
TTITLE11=B. B. King and Rolling Stones - Paying The Cost To Be The Boss
TTITLE12=B. B. King and Zucchero - Let The Good Times Roll
TTITLE13=B. B. King and Joe Cocker - Dangerous Mood
TTITLE14=B. B. King and Heavy D - Keep It Coming
TTITLE15=B. B. King and David Gilmour, Paul Carrack - Cryin´ Won´T Help You Babe
TTITLE16=B. B. King and willie Nelson - Night Life
EXTD=YEAR: 1997\n
EXTT0=
EXTT1=
EXTT2=
EXTT3=
EXTT4=
EXTT5=
EXTT6=
EXTT7=
EXTT8=
EXTT9=
EXTT10=
EXTT11=
EXTT12=
EXTT13=
EXTT14=
EXTT15=
EXTT16=
PLAYORDER=
